<svg version="1.1" id="Layer_1" xmlns="http://www.w3.org/2000/svg" xmlns:xlink="http://www.w3.org/1999/xlink" x="0px" y="0px"
	 width="100%" viewBox="0 0 3257 605" enable-background="new 0 0 3257 605" xml:space="preserve">
    <title>Nvidia</title>
    <g>
<path fill="#21C487" opacity="1.000000" stroke="none" 
	d="
M53.768478,177.408432 
	C58.256550,169.496719 62.062031,161.571320 67.146873,154.575851 
	C77.198730,140.747086 90.981491,131.732269 107.389351,127.137947 
	C113.630714,125.390312 120.228188,124.410698 126.708511,124.132362 
	C137.849472,123.653862 149.025833,124.000000 161.000000,124.000000 
	C161.000000,126.057838 160.910934,127.972382 161.014557,129.876434 
	C161.650894,141.568604 161.220001,153.454956 163.245941,164.904800 
	C166.629745,184.028870 186.616409,201.539597 205.876938,205.072220 
	C234.973892,210.408936 262.134460,190.490524 268.770782,162.286194 
	C269.666046,158.481201 269.870300,154.458252 269.947449,150.527451 
	C270.116882,141.894226 270.000000,133.255386 270.000000,124.311165 
	C307.063751,124.311165 343.777985,124.311165 381.000000,124.311165 
	C381.000000,134.574387 380.916229,144.691132 381.022156,154.805878 
	C381.142181,166.266418 385.735687,176.267456 392.636993,184.949203 
	C401.854248,196.544434 414.162048,203.768356 428.903748,205.782913 
	C440.642853,207.387146 451.895508,204.574524 461.946503,198.404007 
	C476.683441,189.356705 485.601044,176.016479 488.877502,159.017654 
	C489.280792,156.925400 488.995026,154.696762 488.996796,152.531296 
	C489.004333,143.227661 489.000000,133.924011 489.000000,124.000000 
	C498.770538,124.000000 508.214722,124.270691 517.638611,123.948006 
	C543.374146,123.066795 564.511536,132.740509 581.244324,151.891098 
	C591.342346,163.448318 597.986450,177.045807 598.847534,192.547089 
	C599.599487,206.084274 599.004272,219.696304 599.004272,234.004059 
	C417.855865,234.004059 235.965637,234.004059 53.618027,234.009583 
	C53.108349,216.048721 53.047863,198.082367 53.032055,180.115967 
	C53.031380,179.349228 53.444157,178.582138 53.768478,177.408432 
z"/>
<path fill="#21C487" opacity="1.000000" stroke="none" 
	d="
M2485.447754,562.907227 
	C2481.602295,560.004761 2478.078857,557.319824 2474.870605,554.299927 
	C2470.218262,549.920471 2468.057617,544.218689 2468.049805,537.969788 
	C2467.968750,473.307159 2467.484131,408.638184 2468.263916,343.984863 
	C2468.559570,319.478210 2477.184082,296.929443 2492.273193,277.255157 
	C2509.472656,254.829361 2531.894531,240.360947 2559.495605,234.329819 
	C2573.781738,231.208191 2588.263184,231.443375 2602.840088,232.873398 
	C2622.763184,234.827911 2640.682617,241.908630 2656.675537,253.448029 
	C2680.179932,270.407043 2695.476807,293.418518 2701.834961,321.635376 
	C2708.915283,353.057709 2706.000977,383.825317 2690.672363,412.504578 
	C2674.569580,442.632507 2649.580811,462.410858 2615.902832,468.648071 
	C2584.790771,474.410065 2555.287598,468.855347 2529.476318,449.058228 
	C2528.138184,448.031738 2526.435547,447.480194 2524.000000,446.252716 
	C2524.000000,448.984711 2524.000000,450.734924 2524.000000,452.485138 
	C2524.000000,480.150116 2524.082764,507.815491 2523.957031,535.479919 
	C2523.910156,545.837463 2519.782959,554.269226 2510.681885,559.749084 
	C2508.779785,560.894348 2506.501709,561.414490 2504.208984,562.532227 
	C2497.984619,562.886292 2491.947998,562.930664 2485.447754,562.907227 
M2571.765137,417.989777 
	C2578.723877,418.327271 2585.695557,419.110168 2592.638672,418.910187 
	C2607.406250,418.484894 2620.099121,412.299774 2630.246338,402.034424 
	C2649.611328,382.443817 2655.000977,358.620972 2648.517090,332.176331 
	C2643.562744,311.970764 2631.425049,297.262939 2612.574707,288.222076 
	C2600.056152,282.217926 2586.842285,281.448700 2573.565674,284.102875 
	C2551.946045,288.424866 2536.798828,301.314697 2528.095947,321.415436 
	C2522.531982,334.266113 2520.842285,347.746399 2522.895020,361.805573 
	C2524.965332,375.981812 2530.275146,388.468018 2539.712891,399.206787 
	C2548.114746,408.766907 2558.902344,414.376587 2571.765137,417.989777 
z"/>
<path fill="#21C487" opacity="1.000000" stroke="none" 
	d="
M3207.010254,380.417908 
	C3206.344482,381.563416 3205.261475,382.187073 3205.060547,383.022919 
	C3199.618896,405.628967 3188.813232,425.163086 3171.568848,440.864075 
	C3156.128662,454.921783 3138.117676,464.187897 3117.513916,467.919312 
	C3109.306885,469.405640 3100.926758,470.904846 3092.644043,470.806732 
	C3074.585205,470.592804 3056.745361,468.476288 3039.900635,461.029846 
	C3025.435303,454.635376 3012.612305,445.956879 3001.930420,434.346649 
	C2987.456787,418.615387 2977.639160,400.321259 2974.108643,379.121857 
	C2972.440430,369.106445 2971.004395,358.868774 2971.188965,348.763336 
	C2971.714600,319.997803 2979.721924,293.711639 2998.960693,271.447876 
	C3016.575928,251.062683 3038.436523,238.147583 3065.015625,234.186493 
	C3077.203857,232.370056 3089.785400,231.459961 3102.049805,232.261505 
	C3124.959473,233.758728 3146.014160,241.264542 3164.310059,255.747177 
	C3184.712158,271.896942 3197.994873,292.600159 3204.839355,317.578583 
	C3205.300781,319.263367 3205.727539,320.957703 3206.505859,322.813660 
	C3207.227295,340.083130 3207.647949,357.185974 3207.949463,374.290894 
	C3207.982910,376.186127 3207.335693,378.093323 3207.010254,380.417908 
M3151.105713,329.330688 
	C3149.004150,324.041321 3147.418701,318.468445 3144.698486,313.519043 
	C3138.186279,301.670258 3128.601074,293.195435 3115.966309,287.823059 
	C3102.847412,282.244904 3089.335205,281.402557 3075.832275,284.178467 
	C3055.112061,288.437988 3040.409912,300.690582 3031.851074,320.292145 
	C3026.483887,332.583344 3024.984131,345.223480 3025.883789,358.523468 
	C3026.906738,373.646606 3031.953857,387.001343 3041.880615,398.267029 
	C3057.771240,416.300720 3078.435547,422.300293 3101.488525,418.757660 
	C3121.995117,415.606323 3137.483398,403.955292 3146.792480,385.306213 
	C3155.588379,367.685730 3156.001465,348.990265 3151.105713,329.330688 
z"/>
<path fill="#21C487" opacity="1.000000" stroke="none" 
	d="
M477.443909,562.908325 
	C470.324127,559.562012 463.036835,557.144836 457.140991,552.827454 
	C444.167084,543.327087 436.482697,530.449585 434.903351,513.976501 
	C433.096832,495.133698 439.137054,479.471497 452.816406,466.799957 
	C462.103668,458.196930 473.292877,453.697754 486.083954,452.938080 
	C501.632660,452.014618 515.298706,456.638336 526.954346,466.634338 
	C535.615662,474.062439 541.462524,483.857422 543.741333,494.913879 
	C548.000488,515.579224 543.351868,534.342957 527.352173,548.770508 
	C521.571472,553.983215 513.782715,556.971497 506.899048,560.955444 
	C506.077332,561.431091 505.185059,561.784668 504.172668,562.518005 
	C495.315765,562.885925 486.611664,562.930664 477.443909,562.908325 
z"/>
<path fill="#035C5A" opacity="1.000000" stroke="none" 
	d="
M149.429718,562.911194 
	C143.415558,560.455322 137.518326,558.651550 132.385574,555.573242 
	C119.378128,547.772034 110.664848,536.567932 106.917953,521.570312 
	C99.124107,490.373779 119.146698,460.144867 148.717239,454.089600 
	C166.160934,450.517609 182.107208,454.065063 196.131729,465.570160 
	C216.437912,482.228546 221.710983,510.577362 210.122940,533.361084 
	C202.299850,548.742371 189.636826,558.605774 172.276886,562.559631 
	C164.659012,562.887878 157.276901,562.935425 149.429718,562.911194 
z"/>
<path fill="#21C487" opacity="1.000000" stroke="none" 
	d="
M311.444763,562.908081 
	C306.946289,560.885376 302.861115,559.026733 298.885040,556.958313 
	C278.381897,546.292114 266.683380,522.283325 270.705139,499.059967 
	C272.695251,487.567993 277.454468,477.761292 285.126953,469.679291 
	C294.603119,459.697296 306.627991,453.883759 320.674194,452.997833 
	C334.416870,452.131073 347.027710,455.111969 358.180176,463.572021 
	C371.013458,473.307129 378.215240,485.984070 380.107788,502.080658 
	C381.799652,516.470276 378.501312,529.302307 370.001068,540.798340 
	C361.591156,552.172180 350.478485,559.554077 336.225281,562.524048 
	C327.984009,562.886414 319.946198,562.930908 311.444763,562.908081 
z"/>
<path fill="#035C5A" opacity="1.000000" stroke="none" 
	d="
M443.570557,42.088890 
	C450.985779,45.853275 457.633270,49.972496 460.359406,57.910160 
	C461.626068,61.598270 462.855469,65.538261 462.885559,69.373619 
	C463.099884,96.696854 463.296753,124.026978 462.890472,151.345840 
	C462.640167,168.176025 452.087921,179.283279 435.265961,179.632019 
	C421.076935,179.926224 407.518463,170.978668 407.153320,153.009979 
	C406.577972,124.697067 406.686646,96.358772 407.146667,68.041641 
	C407.345062,55.831146 414.339844,47.455235 425.765564,42.433197 
	C431.675262,42.112232 437.390686,42.064674 443.570557,42.088890 
z"/>
<path fill="#035C5A" opacity="1.000000" stroke="none" 
	d="
M223.570740,42.088905 
	C231.105347,45.928177 238.014374,49.950268 240.943665,58.027699 
	C241.992447,60.919666 242.897018,64.064835 242.912598,67.099342 
	C243.059555,95.730186 243.002380,124.362099 242.998947,152.993698 
	C242.997345,166.373978 233.307632,176.849030 219.988678,179.127609 
	C203.969437,181.868149 191.433701,170.542557 188.805573,159.508972 
	C188.352905,157.608536 188.037003,155.622940 188.033508,153.676010 
	C187.984238,126.209740 188.298843,98.738686 187.870621,71.278999 
	C187.664658,58.071289 193.142914,49.143826 204.930878,43.230114 
	C211.111710,42.626366 217.109116,42.321754 223.570740,42.088905 
z"/>
<path fill="#035C5A" opacity="1.000000" stroke="none" 
	d="
M1080.711792,554.355469 
	C1056.449707,546.331543 1036.225586,533.056274 1020.740540,513.098816 
	C1010.203674,499.518585 1016.921448,479.208801 1033.323608,473.802429 
	C1044.492920,470.120880 1054.024780,472.358704 1062.325562,480.758575 
	C1069.302612,487.819061 1075.580811,495.937164 1085.017944,499.895599 
	C1093.312012,503.374542 1101.787720,506.912231 1110.535400,508.695984 
	C1121.908081,511.014984 1133.393555,510.104065 1144.683105,506.267120 
	C1166.376953,498.894073 1178.764038,483.270477 1184.890869,462.051453 
	C1186.787842,455.481384 1187.430176,448.548981 1188.646973,441.782471 
	C1188.178833,441.527466 1187.710693,441.272430 1187.242554,441.017426 
	C1184.274902,443.403259 1181.186523,445.655121 1178.360352,448.198181 
	C1166.225830,459.117096 1151.910889,465.887848 1136.068848,468.730072 
	C1110.660522,473.288696 1085.873169,470.536713 1063.081787,457.889221 
	C1034.279419,441.906128 1016.432983,417.072510 1009.252808,385.148621 
	C1006.451355,372.693268 1005.030945,359.609131 1005.267578,346.853790 
	C1005.786560,318.876923 1014.151245,293.347321 1032.747681,271.674866 
	C1050.351074,251.159653 1072.362549,238.610474 1098.931152,233.990540 
	C1120.600342,230.222534 1142.163452,230.864136 1163.215698,237.290100 
	C1178.855469,242.063904 1192.845703,250.091843 1204.946533,261.361420 
	C1218.653809,274.127136 1229.548706,288.851929 1235.102661,306.750214 
	C1238.443115,317.515259 1241.422241,328.865417 1241.692627,340.022186 
	C1242.532471,374.659576 1242.003662,409.330170 1241.998779,443.987885 
	C1241.994995,471.087860 1233.361694,495.357056 1216.785889,516.535034 
	C1198.184814,540.300537 1173.869629,554.627686 1143.702881,559.154053 
	C1122.362793,562.355957 1101.635742,560.314270 1080.711792,554.355469 
M1181.149780,384.574829 
	C1188.858887,368.224976 1189.783447,351.142242 1186.316406,333.699463 
	C1183.315063,318.600464 1176.171631,305.745026 1164.047729,296.061249 
	C1147.927124,283.185364 1129.222412,280.436554 1109.634888,284.187836 
	C1089.661987,288.012939 1075.196289,300.062866 1066.559814,318.239655 
	C1059.244507,333.635742 1057.732910,350.074524 1060.930298,366.977692 
	C1067.947266,404.073181 1100.715942,424.229065 1135.025146,418.789917 
	C1155.836670,415.490631 1171.022095,403.865417 1181.149780,384.574829 
z"/>
<path fill="#035C5A" opacity="1.000000" stroke="none" 
	d="
M1868.994019,318.054932 
	C1874.441650,296.332825 1884.564941,277.624786 1900.333618,262.239563 
	C1917.017456,245.961426 1936.752075,235.800476 1960.153198,232.904968 
	C1983.621216,230.001221 2006.038208,232.862961 2027.016479,244.098434 
	C2032.661377,247.121597 2037.780151,251.123917 2043.164673,254.639511 
	C2044.050537,255.218048 2045.062500,255.603546 2047.000000,256.567780 
	C2047.000000,253.951157 2047.000000,252.214600 2047.000000,250.478043 
	C2047.000000,222.988434 2047.763062,195.469482 2046.707642,168.020462 
	C2046.096069,152.114197 2059.660889,137.195602 2076.303467,138.815353 
	C2085.349609,139.695786 2093.336914,142.304504 2097.699219,150.093506 
	C2100.791260,155.613983 2102.742188,162.558792 2102.780273,168.882339 
	C2103.146729,230.023697 2103.327637,291.170654 2102.854980,352.310547 
	C2102.634033,380.875336 2093.921875,407.102814 2075.192139,429.064667 
	C2056.288086,451.230927 2032.476807,465.087585 2003.149780,469.107819 
	C1977.426636,472.634033 1952.673096,469.991882 1929.517212,458.084717 
	C1898.976196,442.379944 1878.443359,417.756866 1869.643311,384.550293 
	C1866.304688,371.952057 1865.605469,358.451233 1865.294800,345.324127 
	C1865.083740,336.408081 1867.642456,327.426422 1868.994019,318.054932 
M1930.511230,389.934357 
	C1935.739624,395.647614 1940.297485,402.228333 1946.334717,406.895386 
	C1959.315308,416.929962 1974.267456,420.827545 1990.888672,419.138275 
	C2005.908813,417.611786 2018.618286,411.746552 2028.865845,400.997406 
	C2046.011963,383.012482 2050.597168,361.219757 2047.045776,337.188538 
	C2043.079712,310.349396 2021.285889,287.420959 1994.992920,283.758728 
	C1973.976318,280.831390 1955.513062,285.562439 1940.242798,300.388885 
	C1927.282104,312.972839 1920.311646,328.334045 1919.876587,346.760132 
	C1919.516968,361.988861 1921.962280,376.269470 1930.511230,389.934357 
z"/>
<path fill="#035C5A" opacity="1.000000" stroke="none" 
	d="
M1420.912354,470.996155 
	C1400.532837,470.048676 1380.971924,467.224518 1362.848877,458.337128 
	C1342.936035,448.572083 1326.809937,434.422211 1315.180298,415.396881 
	C1307.242432,402.410797 1301.994263,388.389832 1300.053711,373.283691 
	C1299.002930,365.104279 1297.956177,356.818970 1298.128418,348.607025 
	C1298.710938,320.818542 1305.912842,294.950562 1323.675293,273.056152 
	C1340.508789,252.306747 1362.396606,239.082077 1388.693604,234.158112 
	C1411.789673,229.833496 1434.809570,230.619232 1457.136475,238.944962 
	C1474.727539,245.504578 1488.934326,256.744965 1500.029175,271.671387 
	C1514.784912,291.522766 1521.606689,314.198212 1521.944580,338.826050 
	C1522.026855,344.817963 1522.672852,351.261871 1520.801880,356.724670 
	C1516.953491,367.960876 1507.702271,372.930237 1496.081909,372.956879 
	C1450.254150,373.061981 1404.426147,373.000000 1358.598145,373.000000 
	C1356.771240,373.000000 1354.944336,373.000000 1352.186523,373.000000 
	C1353.791138,376.987366 1354.842896,380.732208 1356.697510,384.024872 
	C1368.111938,404.290527 1385.032593,416.524292 1408.345947,420.149872 
	C1428.671021,423.310699 1446.663940,418.013031 1463.421387,407.033997 
	C1472.051880,401.379517 1481.162842,398.757172 1490.995361,403.080719 
	C1500.791748,407.388245 1507.121338,415.069641 1507.799316,425.855713 
	C1508.418213,435.704498 1502.512329,442.591949 1494.578125,447.691040 
	C1477.265869,458.817108 1458.639771,466.529877 1438.058716,469.023102 
	C1432.497803,469.696747 1426.932861,470.337494 1420.912354,470.996155 
M1388.500000,326.000000 
	C1415.215820,326.000000 1441.931641,326.000000 1468.784302,326.000000 
	C1463.739746,300.934357 1444.320801,279.995239 1411.690674,280.947723 
	C1381.168579,281.838593 1358.294800,302.011383 1353.536499,326.000000 
	C1364.905151,326.000000 1376.202515,326.000000 1388.500000,326.000000 
z"/>
<path fill="#035C5A" opacity="1.000000" stroke="none" 
	d="
M946.000000,406.000000 
	C945.999939,418.497406 946.039062,430.494934 945.988831,442.492126 
	C945.939575,454.263763 938.771606,464.716919 927.394653,467.902405 
	C910.944031,472.508575 894.638245,465.750183 890.354492,446.651947 
	C888.394897,447.410248 886.264526,447.741699 884.760437,448.892059 
	C867.573730,462.036133 848.316833,468.816589 826.623108,470.182007 
	C801.583252,471.757996 778.742310,466.157806 758.212463,451.992157 
	C735.870972,436.576538 721.697144,415.241943 713.819641,389.316620 
	C708.804443,372.811432 707.903870,355.943146 709.229065,339.140900 
	C711.179749,314.407501 720.075867,292.178711 736.394104,272.955139 
	C754.861145,251.200195 778.113953,237.615295 805.955139,233.395813 
	C835.744629,228.881073 864.641479,232.395279 890.861877,249.237701 
	C914.307007,264.297424 931.065735,284.747620 939.637512,311.114868 
	C943.309387,322.409882 945.142822,334.625275 945.735107,346.525818 
	C946.711182,366.139679 946.000000,385.837555 946.000000,406.000000 
M792.071411,293.505646 
	C786.678528,298.766296 780.354065,303.365021 776.060852,309.407074 
	C760.940918,330.686188 758.851685,354.091125 768.048157,378.172272 
	C779.885864,409.169556 808.783569,423.646881 838.834473,418.722839 
	C859.312561,415.367401 874.559631,403.517487 883.911743,384.940582 
	C890.557983,371.738617 892.989929,357.681702 891.143433,342.728851 
	C888.879395,324.395599 881.891418,308.855682 867.484985,296.961334 
	C846.216431,279.401520 816.112732,277.845001 792.071411,293.505646 
z"/>
<path fill="#035C5A" opacity="1.000000" stroke="none" 
	d="
M2399.708984,335.524231 
	C2399.913086,372.618683 2400.066406,409.281982 2399.927002,445.944153 
	C2399.888184,456.204773 2389.285400,467.474518 2378.517578,468.857178 
	C2366.881836,470.351379 2356.292725,467.972748 2349.240967,457.567108 
	C2346.984375,454.237427 2345.822754,450.165771 2344.035645,446.154358 
	C2343.574463,446.249359 2342.597900,446.158020 2342.072021,446.601166 
	C2326.610107,459.626984 2308.712891,467.575745 2288.791016,469.732941 
	C2259.230225,472.933929 2231.667480,467.368317 2207.710693,448.306793 
	C2190.508545,434.619598 2177.947266,417.546936 2170.762695,396.967621 
	C2167.272217,386.969147 2165.730957,376.204437 2164.088379,365.664825 
	C2160.938965,345.455597 2163.955078,325.799194 2170.982422,306.731354 
	C2178.259033,286.987823 2190.520264,270.863220 2206.757324,257.541595 
	C2222.623535,244.524246 2240.703613,236.159622 2260.827393,233.332855 
	C2296.553711,228.314407 2329.603760,234.767807 2358.139893,258.552948 
	C2380.459717,277.156891 2393.413086,300.972260 2398.878662,329.191254 
	C2399.253906,331.128876 2399.331299,333.124176 2399.708984,335.524231 
M2265.317139,417.174683 
	C2272.815186,419.238312 2280.303711,419.915619 2288.172852,419.126617 
	C2313.149902,416.622253 2329.820557,403.127930 2340.055908,380.942383 
	C2346.257324,367.500183 2347.281982,353.320648 2345.046143,338.767365 
	C2342.080078,319.460571 2333.021484,303.845947 2316.741455,292.974609 
	C2290.015625,275.128113 2249.213867,279.940308 2228.947021,311.326660 
	C2215.168701,332.664581 2213.364014,355.666779 2222.708008,379.001068 
	C2230.359131,398.108124 2244.356445,411.189575 2265.317139,417.174683 
z"/>
<path fill="#035C5A" opacity="1.000000" stroke="none" 
	d="
M1809.000000,368.000000 
	C1809.000000,393.156219 1809.006348,417.812469 1808.997437,442.468689 
	C1808.992798,455.369690 1799.130859,467.349304 1787.214478,468.965149 
	C1770.862915,471.182465 1758.275635,463.953857 1754.516846,449.853790 
	C1753.508545,446.070923 1753.075562,442.028473 1753.063232,438.102966 
	C1752.954346,403.451324 1753.345825,368.794281 1752.854980,334.149231 
	C1752.607300,316.653534 1745.491821,301.616577 1730.394653,292.138611 
	C1706.952026,277.421539 1671.776367,279.784821 1652.328979,302.234802 
	C1646.169189,309.345520 1643.050659,317.826660 1643.031860,327.234375 
	C1642.955444,365.551331 1643.003052,403.868561 1642.998291,442.185669 
	C1642.996704,455.678528 1632.742065,467.928925 1620.582031,468.989532 
	C1602.325317,470.581909 1590.664062,462.690887 1588.001587,446.804291 
	C1587.431274,443.400482 1587.044800,439.919739 1587.041382,436.473969 
	C1586.983521,378.665161 1586.997559,320.856262 1587.001343,263.047394 
	C1587.002441,246.166000 1595.987915,234.895065 1612.546021,233.301620 
	C1622.662842,232.328033 1632.323486,235.226974 1638.410645,244.763214 
	C1639.541992,246.535553 1640.741333,248.264526 1641.833740,249.900330 
	C1648.795044,246.303741 1655.333130,242.480270 1662.226196,239.469711 
	C1672.410156,235.021820 1683.156738,232.967957 1694.295288,231.797226 
	C1712.150024,229.920563 1729.226196,232.559937 1745.836060,238.517792 
	C1765.986206,245.745453 1781.675171,258.823883 1792.970093,277.015289 
	C1801.836426,291.295135 1806.984741,306.923431 1807.916138,323.677185 
	C1808.726685,338.259827 1808.672241,352.890533 1809.000000,368.000000 
z"/>
<path fill="#21C487" opacity="1.000000" stroke="none" 
	d="
M2852.777100,287.662476 
	C2834.807373,295.309174 2826.819824,308.695648 2826.931885,327.724487 
	C2827.159668,366.381744 2827.008545,405.041321 2826.995605,443.699921 
	C2826.990723,459.063293 2816.554199,468.240479 2801.968262,468.954926 
	C2791.676758,469.459015 2781.872559,467.607391 2776.481689,457.708588 
	C2773.931152,453.025146 2772.211426,447.231720 2772.186035,441.931244 
	C2771.893555,381.278564 2771.845947,320.623352 2772.094238,259.970367 
	C2772.168457,241.853119 2785.711914,230.425751 2804.889404,233.962601 
	C2818.347656,236.444687 2819.700928,237.740143 2826.657471,251.137756 
	C2829.791748,249.234528 2832.917236,247.359436 2836.020264,245.448090 
	C2847.715088,238.244949 2860.162109,233.478973 2873.973877,231.859665 
	C2887.904541,230.226471 2901.695312,230.323364 2915.108887,234.154327 
	C2926.481689,237.402405 2936.893555,242.549500 2940.276855,255.663940 
	C2943.517822,268.225494 2935.581055,284.303833 2919.319824,284.852875 
	C2912.989258,285.066620 2906.552734,283.929810 2900.251953,282.883514 
	C2884.778320,280.313995 2869.677734,281.078522 2854.991211,286.932373 
	C2854.386719,287.173218 2853.723145,287.265289 2852.777100,287.662476 
z"/>
<path fill="#21C487" opacity="1.000000" stroke="none" 
	d="
M212.963440,325.162781 
	C223.976196,356.942566 205.318405,390.467041 172.837708,397.751373 
	C153.010880,402.197876 135.013885,396.852844 120.659576,382.023254 
	C112.158669,373.240936 107.512291,362.520050 105.854630,350.182861 
	C103.495644,332.626038 109.051865,317.791473 120.533417,305.216034 
	C128.993744,295.949677 140.030029,290.741943 152.694473,288.926514 
	C172.051270,286.151733 188.412811,291.963379 201.375778,306.190125 
	C206.203354,311.488373 209.128464,318.520142 212.963440,325.162781 
z"/>
<path fill="#21C487" opacity="1.000000" stroke="none" 
	d="
M284.737000,381.237671 
	C267.193085,363.587097 264.750793,333.447418 279.556610,312.138885 
	C288.720398,298.950378 301.401489,291.098541 317.760681,288.851929 
	C335.466400,286.420410 350.608643,291.645203 363.388580,303.184296 
	C373.213196,312.055023 378.706299,323.595276 380.134979,337.167969 
	C381.568970,350.790894 378.818451,363.104767 371.238739,374.351654 
	C359.058136,392.425446 341.562775,400.281342 320.276978,398.807190 
	C306.519012,397.854370 294.398712,392.060455 284.737000,381.237671 
z"/>
<path fill="#035C5A" opacity="1.000000" stroke="none" 
	d="
M512.803467,293.054321 
	C530.917908,302.135223 542.087708,316.377655 544.694458,336.073273 
	C546.862427,352.453705 542.737976,367.608643 531.283386,380.244354 
	C519.829346,392.879456 505.614685,399.040039 488.606110,399.009613 
	C464.529510,398.966492 441.739655,381.169922 436.097595,357.608643 
	C431.326660,337.685150 436.013153,319.833618 449.820038,304.908508 
	C458.201965,295.847687 469.121613,290.896301 481.513397,288.874451 
	C492.377106,287.101929 502.480408,288.934570 512.803467,293.054321 
z"/>
</g>
</svg>