<?xml version="1.0" encoding="utf-8"?>
<!-- Generator: Adobe Illustrator 25.2.3, SVG Export Plug-In . SVG Version: 6.00 Build 0)  -->
<svg version="1.1" id="Capa_1" xmlns="http://www.w3.org/2000/svg" xmlns:xlink="http://www.w3.org/1999/xlink" x="0px" y="0px"
	 viewBox="0 0 263.3 48" style="enable-background:new 0 0 263.3 48;" xml:space="preserve">
<style type="text/css">
	.st0{fill:#FFFFFF;}
	.st1{fill:#22C488;}
</style>
<g>
	<path class="st0" d="M75.2,27.5c-0.1-1.7-0.5-3.3-1.3-4.7c-0.8-1.5-2-2.7-3.4-3.5c-1.5-0.9-3.2-1.3-5-1.3c-1.8,0-3.5,0.4-4.9,1.3
		c-1.5,0.9-2.6,2-3.5,3.5c-0.8,1.5-1.3,3.2-1.3,5s0.4,3.5,1.2,5s1.9,2.7,3.2,3.5c1.4,0.9,2.9,1.3,4.6,1.3c1.7,0,3.3-0.4,4.6-1.3
		c0.4-0.3,0.8-0.6,1.2-0.9c0,0.6,0.2,1.1,0.6,1.5s1,0.6,1.6,0.6s1.2-0.2,1.6-0.6c0.4-0.4,0.6-1,0.6-1.6v-7.7L75.2,27.5L75.2,27.5z
		 M70.8,27.8c0,1.1-0.2,2.1-0.7,2.9c-0.5,0.9-1.1,1.5-1.9,2s-1.7,0.7-2.7,0.7s-1.9-0.2-2.7-0.7s-1.4-1.2-1.9-2
		c-0.5-0.9-0.7-1.8-0.7-2.9s0.2-2.1,0.7-2.9c0.5-0.9,1.1-1.5,1.9-2c0.8-0.5,1.7-0.7,2.7-0.7s1.9,0.2,2.7,0.7c0.8,0.5,1.4,1.2,1.9,2
		C70.6,25.7,70.8,26.7,70.8,27.8z"/>
	<path class="st0" d="M99.4,27.4c-0.1-1.7-0.5-3.3-1.2-4.7l0,0c-0.8-1.5-2-2.6-3.4-3.5c-1.4-0.8-3.1-1.3-5-1.3s-3.6,0.4-5,1.3
		c-1.4,0.8-2.6,2-3.4,3.5s-1.2,3.2-1.2,5.1s0.4,3.6,1.2,5c0.8,1.5,1.8,2.6,3.2,3.5c1.3,0.8,2.9,1.3,4.7,1.3c1.6,0,3.1-0.4,4.3-1.3
		c0.6-0.4,1.1-0.9,1.6-1.4c0,1.3-0.3,2.4-0.7,3.3c-0.5,0.9-1.1,1.6-1.9,2c-0.8,0.5-1.7,0.7-2.6,0.7c-1.1,0-2-0.2-2.8-0.6
		c-0.8-0.4-1.5-0.9-2-1.6c-0.3-0.5-0.8-0.8-1.4-0.9c-0.6-0.1-1.1,0-1.7,0.4c-0.5,0.3-0.8,0.8-0.9,1.3c-0.1,0.6,0,1.1,0.4,1.6
		c1,1.3,2.2,2.2,3.7,2.9c1.4,0.7,3,1,4.6,1c1.9,0,3.6-0.5,5.1-1.3c1.5-0.9,2.6-2.1,3.4-3.6s1.2-3.2,1.2-5.1v-7.5L99.4,27.4
		L99.4,27.4z M89.7,33.5c-1,0-2-0.2-2.8-0.7s-1.4-1.1-1.9-2c-0.5-0.8-0.7-1.8-0.7-3c0-1.1,0.2-2.1,0.7-3s1.1-1.5,1.9-2
		s1.7-0.7,2.8-0.7c1,0,2,0.2,2.8,0.7s1.4,1.2,1.9,2c0.4,0.9,0.7,1.9,0.7,3s-0.2,2.1-0.7,3c-0.4,0.8-1.1,1.5-1.9,2
		S90.8,33.5,89.7,33.5z"/>
	<path class="st0" d="M118.2,19.2c-1.3-0.8-2.9-1.2-4.7-1.2c-1.8,0-3.5,0.4-4.9,1.3c-1.4,0.8-2.6,2-3.4,3.5S104,26,104,27.9
		s0.4,3.6,1.3,5.1s2,2.6,3.5,3.5c1.5,0.8,3.2,1.3,5.1,1.3c1.1,0,2.2-0.2,3.4-0.6c1.2-0.4,2.2-0.9,2.9-1.6c0.7-0.5,0.8-1.1,0.7-1.5
		c0-0.6-0.3-1.1-0.8-1.5c-0.4-0.3-0.9-0.5-1.4-0.5s-1,0.2-1.4,0.5s-0.9,0.6-1.6,0.8s-1.3,0.4-1.9,0.4c-1.2,0-2.2-0.3-3.1-0.8
		s-1.6-1.2-2.1-2.1c-0.2-0.4-0.4-0.8-0.5-1.3H120c0.6,0,1.1-0.2,1.5-0.6s0.6-0.9,0.6-1.5c0-1.8-0.3-3.5-1-4.9
		C120.5,21.2,119.5,20.1,118.2,19.2z M118,25.8h-9.6c0.1-0.3,0.2-0.7,0.4-1c0.4-0.9,1-1.6,1.8-2.1s1.8-0.7,2.9-0.7
		c1,0,1.8,0.2,2.5,0.7s1.2,1.1,1.6,1.9C117.8,24.9,117.9,25.3,118,25.8z"/>
	<path class="st0" d="M141.5,19L141.5,19c-1.3-0.7-2.7-1.1-4.3-1.1c-1.5,0-3,0.3-4.2,1c-0.3,0.2-0.7,0.4-1,0.6
		c-0.1-0.3-0.3-0.6-0.5-0.9c-0.4-0.4-1-0.6-1.6-0.6s-1.2,0.2-1.6,0.6c-0.4,0.4-0.6,1-0.6,1.6v14.9c0,0.6,0.2,1.2,0.6,1.6
		c0.4,0.4,1,0.6,1.6,0.6c0.7,0,1.2-0.2,1.6-0.7c0.4-0.4,0.6-1,0.6-1.6v-9.4c0-0.7,0.2-1.3,0.6-1.9c0.4-0.6,0.9-1,1.6-1.3
		c0.7-0.3,1.4-0.5,2.3-0.5c0.9,0,1.7,0.2,2.4,0.5s1.2,0.9,1.6,1.6c0.4,0.7,0.6,1.7,0.6,2.8V35c0,0.6,0.2,1.2,0.6,1.6
		c0.4,0.4,1,0.6,1.6,0.6s1.2-0.2,1.6-0.6c0.4-0.4,0.6-1,0.6-1.6v-8.2c0-1.9-0.4-3.6-1.1-4.9C143.8,20.8,142.8,19.7,141.5,19z"/>
	<path class="st0" d="M167.4,10.3c-0.6,0-1.2,0.2-1.6,0.6c-0.4,0.4-0.6,1-0.6,1.6v7.6c-0.6-0.5-1.2-1-2-1.3
		c-1.2-0.6-2.5-0.9-3.8-0.9c-1.7,0-3.3,0.4-4.6,1.3c-1.4,0.9-2.4,2-3.2,3.5s-1.2,3.1-1.2,5c0,1.8,0.4,3.5,1.3,5
		c0.8,1.5,2,2.7,3.5,3.5c1.5,0.9,3.1,1.3,4.9,1.3c1.8,0,3.5-0.4,4.9-1.3c1.4-0.9,2.6-2,3.4-3.5c0.8-1.5,1.3-3.2,1.3-5V12.6
		c0-0.7-0.2-1.2-0.6-1.6C168.6,10.5,168,10.3,167.4,10.3z M165.3,27.8c0,1.1-0.2,2.1-0.7,2.9c-0.5,0.9-1.1,1.5-1.9,2
		c-0.8,0.5-1.7,0.7-2.7,0.7s-1.9-0.2-2.7-0.7s-1.4-1.2-1.9-2c-0.5-0.9-0.7-1.9-0.7-2.9c0-1.1,0.2-2.1,0.7-2.9s1.1-1.5,1.9-2
		c0.8-0.5,1.7-0.7,2.7-0.7s1.9,0.2,2.7,0.7s1.4,1.2,1.9,2C165,25.7,165.3,26.7,165.3,27.8z"/>
	<path class="st0" d="M193.9,27.5L193.9,27.5c-0.1-1.7-0.5-3.3-1.3-4.7c-0.8-1.5-2-2.7-3.4-3.5c-1.4-0.9-3.1-1.3-4.9-1.3
		c-1.8,0-3.5,0.4-4.9,1.3c-1.5,0.9-2.6,2-3.5,3.5c-0.8,1.5-1.3,3.2-1.3,5s0.4,3.5,1.2,5s1.9,2.7,3.2,3.5c1.4,0.9,2.9,1.3,4.6,1.3
		c1.7,0,3.3-0.4,4.6-1.3c0.4-0.3,0.8-0.6,1.2-0.9c0,0.6,0.2,1.1,0.6,1.5c0.4,0.4,1,0.6,1.6,0.6s1.2-0.2,1.6-0.6
		c0.4-0.4,0.6-1,0.6-1.6L193.9,27.5L193.9,27.5z M189.6,27.8c0,1.1-0.2,2.1-0.7,2.9c-0.5,0.9-1.1,1.5-1.9,2
		c-0.8,0.5-1.7,0.7-2.7,0.7s-1.9-0.2-2.7-0.7s-1.4-1.2-1.9-2c-0.5-0.9-0.7-1.8-0.7-2.9s0.2-2.1,0.7-2.9c0.5-0.9,1.1-1.5,1.9-2
		c0.8-0.5,1.7-0.7,2.7-0.7s1.9,0.2,2.7,0.7s1.4,1.2,1.9,2C189.4,25.7,189.6,26.7,189.6,27.8z"/>
	<g>
		<path class="st1" d="M214.1,19.3c-1.4-0.9-3.1-1.3-4.9-1.3c-1.8,0-3.5,0.4-4.9,1.3s-2.6,2-3.4,3.5c-0.8,1.5-1.3,3.2-1.3,5V43
			c0,0.6,0.2,1.2,0.6,1.6c0.4,0.4,1,0.6,1.6,0.6c0.7,0,1.2-0.2,1.6-0.7c0.4-0.4,0.6-1,0.6-1.6v-7.6c0.6,0.5,1.3,1,2,1.3
			c1.2,0.6,2.4,0.9,3.8,0.9c1.7,0,3.3-0.4,4.6-1.3c1.4-0.9,2.4-2,3.2-3.5s1.2-3.1,1.2-5c0-1.8-0.4-3.5-1.3-5
			C216.7,21.3,215.5,20.2,214.1,19.3z M214.5,27.8c0,1.1-0.2,2.1-0.7,2.9c-0.5,0.9-1.1,1.5-1.9,2c-0.8,0.5-1.7,0.7-2.7,0.7
			s-1.9-0.2-2.7-0.7s-1.4-1.2-1.9-2c-0.5-0.9-0.7-1.8-0.7-2.9s0.2-2.1,0.7-3s1.1-1.5,1.9-2c0.8-0.5,1.7-0.7,2.7-0.7s1.9,0.2,2.7,0.7
			s1.4,1.2,1.9,2C214.2,25.7,214.5,26.7,214.5,27.8z"/>
		<path class="st1" d="M237,18.7c-0.7-0.5-1.8-0.7-3.3-0.7c-1.4,0-2.7,0.3-3.9,1c-0.4,0.2-0.8,0.5-1.1,0.8c-0.1-0.4-0.3-0.8-0.5-1
			c-0.4-0.4-0.9-0.6-1.6-0.6c-0.7,0-1.2,0.2-1.6,0.6c-0.4,0.4-0.6,0.9-0.6,1.6v14.9c0,0.7,0.2,1.3,0.6,1.7c0.4,0.4,0.9,0.6,1.6,0.6
			c0.7,0,1.3-0.2,1.6-0.6c0.4-0.4,0.6-0.9,0.6-1.6v-9.7c0-0.9,0.3-1.6,0.8-2.1c0.6-0.6,1.4-1,2.4-1.2s2.2-0.2,3.6,0.1
			c0.4,0.1,0.7,0.1,1,0s0.6-0.2,0.9-0.4c0.3-0.2,0.5-0.6,0.6-1C238.2,20.2,238.1,19.4,237,18.7z"/>
		<path class="st1" d="M258.7,22.7c-0.8-1.5-2-2.6-3.4-3.5c-1.4-0.8-3.1-1.3-5-1.3s-3.6,0.4-5,1.3c-1.4,0.8-2.6,2-3.4,3.5
			c-0.8,1.5-1.2,3.2-1.2,5.1s0.4,3.6,1.2,5.1s2,2.6,3.4,3.5c1.4,0.8,3.1,1.3,5,1.3s3.6-0.4,5-1.3c1.4-0.8,2.6-2,3.4-3.5
			s1.2-3.2,1.2-5.1C259.9,25.9,259.5,24.2,258.7,22.7z M255.6,27.8c0,1.1-0.2,2.1-0.7,3c-0.4,0.8-1.1,1.5-1.9,2
			c-0.8,0.5-1.7,0.7-2.8,0.7c-1,0-2-0.2-2.8-0.7s-1.4-1.1-1.9-2c-0.5-0.8-0.7-1.8-0.7-3c0-1.1,0.2-2.1,0.7-3s1.1-1.5,1.9-2
			c0.8-0.5,1.7-0.7,2.8-0.7c1,0,2,0.2,2.8,0.7s1.4,1.2,1.9,2C255.3,25.7,255.6,26.7,255.6,27.8z"/>
	</g>
	<path class="st1" d="M24.5,31.7c2.5,0,4.5-2,4.5-4.5s-2-4.5-4.5-4.5s-4.5,2-4.5,4.5S22.1,31.7,24.5,31.7z"/>
	<path class="st1" d="M11.1,31.7c2.5,0,4.5-2,4.5-4.5s-2-4.5-4.5-4.5s-4.5,2-4.5,4.5S8.6,31.7,11.1,31.7z"/>
	<path class="st0" d="M38,31.7c2.5,0,4.5-2,4.5-4.5s-2-4.5-4.5-4.5s-4.5,2-4.5,4.5S35.5,31.7,38,31.7z"/>
	<path class="st1" d="M38,45.3c2.5,0,4.5-2,4.5-4.5s-2-4.5-4.5-4.5s-4.5,2-4.5,4.5S35.5,45.3,38,45.3z"/>
	<path class="st1" d="M24.5,45.3c2.5,0,4.5-2,4.5-4.5s-2-4.5-4.5-4.5s-4.5,2-4.5,4.5S22.1,45.3,24.5,45.3z"/>
	<path class="st0" d="M11.1,36.2c-2.5,0-4.5,2-4.5,4.5s2,4.5,4.5,4.5s4.5-2,4.5-4.5C15.6,38.3,13.6,36.2,11.1,36.2z"/>
	<path class="st0" d="M15.6,2.3c-1.2,0-2.2,1-2.2,2.3v6.8c0,1.2,1,2.3,2.2,2.3s2.2-1,2.2-2.3V4.6C17.8,3.3,16.8,2.3,15.6,2.3z"/>
	<path class="st1" d="M40.5,9.1H38v2.3c0,2.5-2.1,4.5-4.5,4.5S29,13.8,29,11.4V9.1h-9v2.3c0,2.5-2.1,4.5-4.5,4.5S11,13.8,11,11.4
		V9.1H8.6C5,9.1,2.1,12,2.1,15.6v2.5l0,0h44.8v-2.5C46.9,12,44,9.1,40.5,9.1z"/>
	<path class="st0" d="M31.2,11.4c0,1.2,1,2.3,2.2,2.3s2.2-1,2.2-2.3V4.6c0-1.2-1-2.3-2.2-2.3s-2.2,1-2.2,2.3V11.4z"/>
</g>
</svg>
